<svg version="1.2" xmlns="http://www.w3.org/2000/svg" viewBox="0 -0.3124494458297704 800 1273.3124494458298" width="800" height="1274">
	<style>
		.s0 { fill: #1d1d1b } 
		.s1 { fill: #0c0d0d } 
	</style>
	<g id="Calque 2">
		<g id="Calque 1 00000044174141086094954650000005529339802898191498 ">
			<g id="&lt;Group&gt;">
				<g id="&lt;Group&gt;">
					<path id="&lt;Compound Path&gt;" class="s0" d="m463.34 333.24c10.46 0 20.86-3.9 27.95-11.86q11.11-12.49 11.11-27.47v-294.22h-69.18q-40.11 0-40.11 44.43v591.98q0 44.44 40.11 44.44h69.18v-294.22q0-14.98-11.11-27.47c-7.09-7.97-17.49-11.86-27.95-11.86h-0.08v-13.75zm-0.08-275.33c0-13.79 2.41-23.23 7.09-28.53 1.24-1.4 2.6-2.57 4.15-3.39v262.3c0 6.27-1.26 11.02-3.66 14.38-1.84 2.58-4.34 4.37-7.58 5.27zm-27.9 577.16v20.95c0 0-14.35-6.65-14.35-19.92v-264.6h14.35zm0-301.64v13.35q-3.57-0.38-6.26-1.82c-2.09-1.13-2.09-8.59 0-9.71q2.69-1.45 6.26-1.82zm0-288.29v263.57h-14.35v-264.6c0-13.27 14.35-19.92 14.35-19.92zm35.48 332.41c2.4 3.36 3.66 8.11 3.66 14.38v262.3c-1.55-0.82-2.91-1.99-4.15-3.39-4.68-5.3-7.09-14.74-7.09-28.53v-250.03c3.24 0.9 5.74 2.69 7.58 5.27z"/>
					<path id="&lt;Compound Path&gt;" class="s0" d="m333.29-0.31h-69.18v294.22q0 14.98 11.11 27.47c7.09 7.96 17.49 11.86 27.95 11.86h0.08v13.75h-0.08c-10.46 0-20.86 3.89-27.95 11.86q-11.11 12.49-11.11 27.47v294.22h69.18q40.11 0 40.11-44.44v-591.98q0-44.43-40.11-44.43zm-30.04 622.62c0 13.8-2.4 23.23-7.09 28.54-1.24 1.4-2.59 2.57-4.15 3.39v-262.3c0-6.27 1.26-11.02 3.66-14.39 1.84-2.58 4.35-4.36 7.58-5.26zm27.9-288.87v-0.01q3.58 0.38 6.26 1.82c2.09 1.13 2.09 8.59 0 9.71q-2.68 1.45-6.26 1.82zm-27.9-25.5c-3.23-0.9-5.74-2.69-7.58-5.27-2.4-3.36-3.66-8.11-3.66-14.38v-262.3c1.56 0.82 2.91 1.99 4.15 3.39 4.69 5.3 7.09 14.74 7.09 28.53zm42.25 328.17c0 13.27-14.35 19.92-14.35 19.92v-20.95-263.57h14.35zm0-327.38h-14.35v-263.58-20.94c0 0 14.35 6.64 14.35 19.92z"/>
				</g>
				<g id="&lt;Group&gt;">
					<path id="&lt;Path&gt;" class="s1" d="m26.67 966.62h-10.63c-7.32 0-16.04 3.44-16.04 19.86v119.93c0 6.68 3.48 12.56 10.35 17.48l0.36 0.26h14.26c2.06 0 4.8 0.74 4.8 7.14v116.1c0 8.41-1.83 12.67-5.44 12.67h-5.95c-3.61 0-5.44-4.26-5.44-12.67v-75.58h-12.94v80.9c0 13.46 3.97 20.29 11.79 20.29h19.14c7.82 0 11.78-6.83 11.78-20.29v-123.76c0-6.65-3.25-12.53-9.68-17.45l-0.37-0.29h-14.92c-2.06 0-4.8-0.74-4.8-7.14v-117.59c0-4.59 0.97-6.92 2.89-6.92h11.06c1.91 0 2.88 2.33 2.88 6.92v80.9h12.94v-80.9c0-16.42-8.72-19.86-16.04-19.86z"/>
					<path id="&lt;Path&gt;" class="s1" d="m91.36 1114.4h-17.69v-147.78h-12.93v306.38h12.93v-145.66h17.69v145.66h12.94v-306.38h-12.94z"/>
					<path id="&lt;Path&gt;" class="s1" d="m122.32 1273h37.18v-12.94h-24.24v-132.72h24.24v-12.94h-24.24v-134.84h24.24v-12.94h-37.18z"/>
					<path id="&lt;Path&gt;" class="s1" d="m224.7 966.62l-17.11 124.5-17.3-124.5h-12.99l23.83 154.36v152.02h12.94l-0.02-151.92 23.64-154.46z"/>
					<path id="&lt;Path&gt;" class="s1" d="m255.49 1273h37.18v-12.94h-24.24v-132.72h24.24v-12.94h-24.24v-134.84h24.24v-12.94h-37.18z"/>
					<path id="&lt;Compound Path&gt;" class="s1" d="m409.55 966.62h-10.63c-7.32 0-16.04 3.44-16.04 19.86v266.23c0 13.46 3.97 20.29 11.79 20.29h19.14c7.82 0 11.78-6.83 11.78-20.29v-266.23c0-16.42-8.72-19.86-16.04-19.86zm-13.73 19.86c0-4.59 0.97-6.92 2.89-6.92h11.06c1.91 0 2.88 2.33 2.88 6.92v260.91c0 8.41-1.83 12.67-5.44 12.67h-5.95c-3.61 0-5.44-4.26-5.44-12.67z"/>
					<path id="&lt;Path&gt;" class="s1" d="m456.56 966.62h-12.94v306.38h37.18v-12.94h-24.24z"/>
					<path id="&lt;Compound Path&gt;" class="s1" d="m527.01 966.62l-28.32 306.38h14.24l8.5-101h20.23l7.23 101h12.96l-24.67-306.38zm13.6 192.44h-17.89l9.67-114.62z"/>
					<path id="&lt;Compound Path&gt;" class="s1" d="m607.28 966.62h-27.52v306.38h31.78c7.82 0 11.78-6.83 11.78-20.29v-266.23c0-16.42-8.72-19.86-16.04-19.86zm3.1 19.86v260.91c0 8.41-1.83 12.67-5.44 12.67h-12.24v-280.5h14.79c1.92 0 2.89 2.33 2.89 6.92z"/>
					<path id="&lt;Path&gt;" class="s1" d="m641.35 1273h37.18v-12.94h-24.24v-132.72h24.24v-12.94h-24.24v-134.84h24.24v-12.94h-37.18z"/>
					<path id="&lt;Path&gt;" class="s1" d="m726.32 1247.39c0 8.41-1.83 12.67-5.43 12.67h-5.96c-3.61 0-5.44-4.26-5.44-12.67v-75.58h-12.94v80.9c0 13.46 3.97 20.29 11.79 20.29h19.14c7.82 0 11.78-6.83 11.78-20.29v-285.67h-12.94z"/>
					<path id="&lt;Compound Path&gt;" class="s1" d="m783.96 966.62h-10.63c-7.32 0-16.04 3.44-16.04 19.86v266.23c0 13.46 3.96 20.29 11.78 20.29h19.14c7.83 0 11.79-6.83 11.79-20.29v-266.23c0-16.42-8.72-19.86-16.04-19.86zm-13.73 19.86c0-4.59 0.97-6.92 2.89-6.92h11.05c1.92 0 2.89 2.33 2.89 6.92v260.91c0 8.41-1.83 12.67-5.44 12.67h-5.95c-3.61 0-5.44-4.26-5.44-12.67z"/>
				</g>
			</g>
		</g>
	</g>
</svg>