<svg width="977" height="307" viewBox="0 0 977 307" fill="none" xmlns="http://www.w3.org/2000/svg">
<g clip-path="url(#clip0_1_29)">
<g clip-path="url(#clip1_1_29)">
<path d="M89.4601 150.4C94.1548 150.4 98.828 148.643 102.011 145.052C105.337 141.299 107 137.172 107 132.67V0.0180664H75.9353C63.9299 0.019857 57.9263 6.69794 57.9246 20.0523V286.946C57.9263 300.302 63.9299 306.98 75.9353 306.98H107V174.331C107 169.828 105.337 165.7 102.011 161.946C98.828 158.355 94.1548 156.599 89.4601 156.599H89.4254V150.4H89.4601ZM89.4227 26.2702C89.4227 20.0523 90.5034 15.7978 92.6059 13.4047C93.1623 12.7735 93.7722 12.2443 94.4677 11.8764H94.4704V130.134C94.4704 132.963 93.906 135.103 92.8253 136.618C91.9987 137.784 90.8752 138.587 89.4227 138.993V26.2702ZM76.8957 286.487V295.928C76.8957 295.928 70.4543 292.933 70.4543 286.949V167.654H76.8957V286.487ZM76.8957 150.494V156.51C75.8257 156.397 74.8885 156.124 74.0842 155.691C73.1453 155.183 73.1453 151.818 74.0842 151.31C74.8885 150.877 75.8257 150.604 76.8957 150.491V150.494ZM76.8957 20.517V139.35H70.4543V20.055C70.4543 14.0708 76.8957 11.076 76.8957 11.076V20.517ZM92.8253 170.38C93.906 171.898 94.4704 174.038 94.4704 176.864V295.125H94.4677C93.7722 294.757 93.1623 294.225 92.6059 293.597C90.5034 291.203 89.4227 286.949 89.4227 280.731V168.009C90.8752 168.411 91.9987 169.217 92.8253 170.38Z" fill="#0C0D0D"/>
<path d="M31.0648 0.0180664H0V132.67C0 137.172 1.66296 141.299 4.98888 145.052C8.17213 148.643 12.8454 150.4 17.54 150.4H17.5748V156.599H17.54C12.8454 156.599 8.17213 158.355 4.98888 161.946C1.66296 165.7 0 169.828 0 174.331V306.98H31.0648C43.0702 306.98 49.0738 300.302 49.0756 286.946V20.0523C49.0738 6.69794 43.0702 0.019857 31.0648 0.0180664ZM17.5748 280.731C17.5748 286.949 16.4967 291.203 14.3915 293.594C13.8378 294.225 13.2279 294.754 12.5297 295.122V176.864C12.5297 174.038 13.0941 171.895 14.1722 170.38C14.9987 169.217 16.1222 168.411 17.5748 168.006V280.731ZM30.1045 150.494V150.491C31.1745 150.604 32.1116 150.878 32.9159 151.313C33.8548 151.818 33.8548 155.183 32.9159 155.691C32.1116 156.124 31.1745 156.397 30.1045 156.51V150.494ZM17.5748 138.995C16.1222 138.59 14.9987 137.784 14.1722 136.621C13.0941 135.106 12.5297 132.963 12.5297 130.137V11.8764V11.8791C13.2279 12.247 13.8378 12.7762 14.3915 13.4073C16.4967 15.7978 17.5748 20.0523 17.5748 26.2702V138.995ZM36.5459 286.949C36.5459 292.936 30.1045 295.931 30.1045 295.931V286.487V167.654H36.5459V286.949ZM36.5459 139.35H30.1045V20.517V11.0733C30.1045 11.0733 36.5459 14.0708 36.5459 20.055V139.35Z" fill="#0C0D0D"/>
</g>
<path d="M203.67 0.276367H193.04C185.72 0.276367 177 3.71635 177 20.1364V140.066C177 146.746 180.48 152.626 187.35 157.546L187.71 157.806H201.97C204.03 157.806 206.77 158.546 206.77 164.946V281.046C206.77 289.456 204.94 293.716 201.33 293.716H195.38C191.77 293.716 189.94 289.456 189.94 281.046V205.466H177V286.366C177 299.826 180.97 306.656 188.79 306.656H207.93C215.75 306.656 219.71 299.826 219.71 286.366V162.606C219.71 155.956 216.46 150.076 210.03 145.156L209.66 144.866H194.74C192.68 144.866 189.94 144.126 189.94 137.726V20.1364C189.94 15.5464 190.91 13.2164 192.83 13.2164H203.89C205.8 13.2164 206.77 15.5464 206.77 20.1364V101.036H219.71V20.1364C219.71 3.71635 210.99 0.276367 203.67 0.276367Z" fill="#0C0D0D"/>
<path d="M268.36 148.056H250.67V0.276367H237.74V306.656H250.67V160.996H268.36V306.656H281.3V0.276367H268.36V148.056Z" fill="#0C0D0D"/>
<path d="M299.32 306.656H336.5V293.716H312.26V160.996H336.5V148.056H312.26V13.2164H336.5V0.276367H299.32V306.656Z" fill="#0C0D0D"/>
<path d="M401.7 0.276367L384.59 124.776L367.29 0.276367H354.3L378.13 154.636V306.656H391.07L391.05 154.736L414.69 0.276367H401.7Z" fill="#0C0D0D"/>
<path d="M432.49 306.656H469.67V293.716H445.43V160.996H469.67V148.056H445.43V13.2164H469.67V0.276367H432.49V306.656Z" fill="#0C0D0D"/>
<path d="M586.55 0.276367H575.92C568.6 0.276367 559.88 3.71635 559.88 20.1364V286.366C559.88 299.826 563.85 306.656 571.67 306.656H590.81C598.63 306.656 602.59 299.826 602.59 286.366V20.1364C602.59 3.71635 593.87 0.276367 586.55 0.276367ZM572.82 20.1364C572.82 15.5464 573.79 13.2164 575.71 13.2164H586.77C588.68 13.2164 589.65 15.5464 589.65 20.1364V281.046C589.65 289.456 587.82 293.716 584.21 293.716H578.26C574.65 293.716 572.82 289.456 572.82 281.046V20.1364Z" fill="#0C0D0D"/>
<path d="M633.56 0.276367H620.62V306.656H657.8V293.716H633.56V0.276367Z" fill="#0C0D0D"/>
<path d="M704.01 0.276367L675.69 306.656H689.93L698.43 205.656H718.66L725.89 306.656H738.85L714.18 0.276367H704.01ZM717.61 192.716H699.72L709.39 78.0963L717.61 192.716Z" fill="#0C0D0D"/>
<path d="M784.28 0.276367H756.76V306.656H788.54C796.36 306.656 800.32 299.826 800.32 286.366V20.1364C800.32 3.71635 791.6 0.276367 784.28 0.276367ZM787.38 20.1364V281.046C787.38 289.456 785.55 293.716 781.94 293.716H769.7V13.2164H784.49C786.41 13.2164 787.38 15.5464 787.38 20.1364Z" fill="#0C0D0D"/>
<path d="M818.35 306.656H855.53V293.716H831.29V160.996H855.53V148.056H831.29V13.2164H855.53V0.276367H818.35V306.656Z" fill="#0C0D0D"/>
<path d="M903.32 281.046C903.32 289.456 901.49 293.716 897.89 293.716H891.93C888.32 293.716 886.49 289.456 886.49 281.046V205.466H873.55V286.366C873.55 299.826 877.52 306.656 885.34 306.656H904.48C912.3 306.656 916.26 299.826 916.26 286.366V0.696289H903.32V281.046Z" fill="#0C0D0D"/>
<path d="M960.96 0.276367H950.33C943.01 0.276367 934.29 3.71635 934.29 20.1364V286.366C934.29 299.826 938.25 306.656 946.07 306.656H965.21C973.04 306.656 977 299.826 977 286.366V20.1364C977 3.71635 968.28 0.276367 960.96 0.276367ZM947.23 20.1364C947.23 15.5464 948.2 13.2164 950.12 13.2164H961.17C963.09 13.2164 964.06 15.5464 964.06 20.1364V281.046C964.06 289.456 962.23 293.716 958.62 293.716H952.67C949.06 293.716 947.23 289.456 947.23 281.046V20.1364Z" fill="#0C0D0D"/>
</g>
<defs>
<clipPath id="clip0_1_29">
<rect width="977" height="307" fill="white"/>
</clipPath>
<clipPath id="clip1_1_29">
<rect width="107" height="307" fill="white"/>
</clipPath>
</defs>
</svg>
