<svg width="800" height="1024" viewBox="0 0 800 1024" fill="none" xmlns="http://www.w3.org/2000/svg">
<path d="M457.83 240.85C465.38 240.85 472.89 238.03 478.01 232.28C483.357 226.273 486.03 219.663 486.03 212.45V0H436.08C416.773 0 407.12 10.6933 407.12 32.08V459.54C407.12 480.933 416.773 491.63 436.08 491.63H486.03V279.17C486.03 271.963 483.357 265.353 478.01 259.34C472.89 253.59 465.38 250.78 457.83 250.78H457.77V240.85H457.83ZM457.77 42.04C457.77 32.08 459.51 25.27 462.89 21.44C463.79 20.43 464.77 19.58 465.89 18.99V208.39C465.89 212.92 464.98 216.35 463.25 218.78C461.92 220.64 460.11 221.93 457.77 222.58V42.04ZM437.63 458.8V473.92C437.63 473.92 427.27 469.12 427.27 459.54V268.48H437.63V458.8ZM437.63 240.99V250.63C435.903 250.45 434.393 250.01 433.1 249.31C431.6 248.5 431.6 243.11 433.1 242.3C434.393 241.607 435.903 241.17 437.63 240.99ZM437.63 32.82V223.14H427.27V32.08C427.27 22.49 437.63 17.7 437.63 17.7V32.82ZM463.25 272.84C464.98 275.27 465.89 278.7 465.89 283.22V472.63C464.77 472.04 463.79 471.19 462.89 470.18C459.51 466.35 457.77 459.53 457.77 449.58V269.04C460.11 269.69 461.92 270.98 463.25 272.84Z" fill="white"/>
<path d="M363.92 0H313.97V212.45C313.97 219.663 316.643 226.273 321.99 232.28C327.11 238.03 334.62 240.85 342.17 240.85H342.23V250.78H342.17C334.62 250.78 327.11 253.59 321.99 259.34C316.643 265.353 313.97 271.963 313.97 279.17V491.63H363.92C383.226 491.63 392.88 480.933 392.88 459.54V32.08C392.88 10.6933 383.226 0 363.92 0ZM342.23 449.58C342.23 459.54 340.49 466.36 337.11 470.19C336.22 471.2 335.24 472.05 334.12 472.64H334.11V283.23C334.11 278.71 335.02 275.28 336.76 272.85C338.09 270.98 339.89 269.7 342.23 269.05V449.58ZM362.38 240.99C364.1 241.17 365.606 241.607 366.9 242.3C368.41 243.11 368.41 248.5 366.9 249.31C365.606 250.003 364.1 250.44 362.38 250.62V240.99ZM342.23 222.58C339.89 221.93 338.09 220.64 336.76 218.78C335.02 216.35 334.11 212.92 334.11 208.39V18.99H334.12C335.24 19.58 336.22 20.43 337.11 21.44C340.49 25.27 342.23 32.08 342.23 42.04V222.58ZM372.74 459.54C372.74 469.13 362.38 473.93 362.38 473.93V458.8V268.48H372.74V459.54ZM372.74 223.15H362.38V32.82V17.7C362.38 17.7 372.74 22.5 372.74 32.08V223.15Z" fill="white"/>
<path d="M130.43 700.57H122.75C117.47 700.57 111.17 703.06 111.17 714.91V801.51C111.17 806.33 113.68 810.58 118.64 814.13L118.9 814.32H129.2C130.69 814.32 132.67 814.85 132.67 819.48V903.31C132.67 909.38 131.35 912.46 128.74 912.46H124.44C121.83 912.46 120.51 909.38 120.51 903.31V848.74H111.17V907.15C111.17 916.87 114.03 921.8 119.68 921.8H133.5C139.15 921.8 142.01 916.87 142.01 907.15V817.79C142.01 812.98 139.66 808.74 135.02 805.18L134.76 804.98H123.98C122.49 804.98 120.51 804.44 120.51 799.82V714.91C120.517 711.584 121.213 709.917 122.6 709.91H130.58C131.967 709.917 132.663 711.584 132.67 714.91V773.32H142.01V714.91C142.01 703.06 135.71 700.57 130.43 700.57Z" fill="white"/>
<path d="M177.14 807.28H164.37V700.57H155.02V921.8H164.37V816.62H177.14V921.8H186.48V700.57H177.14V807.28Z" fill="white"/>
<path d="M199.49 921.8H226.34V912.46H208.84V816.62H226.34V807.28H208.84V709.91H226.34V700.57H199.49V921.8Z" fill="white"/>
<path d="M273.419 700.57L261.069 790.47L248.569 700.57H239.189L256.399 812.03V921.8H265.739L265.729 812.1L282.799 700.57H273.419Z" fill="white"/>
<path d="M295.65 921.8H322.5V912.46H304.99V816.62H322.5V807.28H304.99V709.91H322.5V700.57H295.65V921.8Z" fill="white"/>
<path d="M406.9 700.57H399.22C393.94 700.57 387.64 703.06 387.64 714.91V907.15C387.64 916.87 390.5 921.8 396.15 921.8H409.97C415.62 921.8 418.48 916.87 418.48 907.15V714.91C418.48 703.06 412.18 700.57 406.9 700.57ZM396.98 714.91C396.986 711.584 397.683 709.917 399.07 709.91H407.05C408.436 709.917 409.133 711.584 409.14 714.91V903.31C409.14 909.38 407.82 912.46 405.21 912.46H400.91C398.3 912.46 396.98 909.38 396.98 903.31V714.91Z" fill="white"/>
<path d="M440.84 700.57H431.5V921.8H458.34V912.46H440.84V700.57Z" fill="white"/>
<path d="M491.71 700.57L471.26 921.8H481.54L487.69 848.87H502.29L507.51 921.8H516.87L499.05 700.57H491.71ZM501.53 839.52H488.62L495.6 756.77L501.53 839.52Z" fill="white"/>
<path d="M549.68 700.57H529.8V921.8H552.75C558.39 921.8 561.26 916.87 561.26 907.15V714.91C561.26 703.06 554.96 700.57 549.68 700.57ZM551.91 714.91V903.31C551.91 909.38 550.59 912.46 547.99 912.46H539.14V709.91H549.83C551.217 709.917 551.91 711.584 551.91 714.91Z" fill="white"/>
<path d="M574.27 921.8H601.12V912.46H583.609V816.62H601.12V807.28H583.609V709.91H601.12V700.57H574.27V921.8Z" fill="white"/>
<path d="M635.63 903.31C635.63 909.38 634.31 912.46 631.7 912.46H627.4C624.8 912.46 623.48 909.38 623.48 903.31V848.74H614.13V907.15C614.13 916.87 617 921.8 622.64 921.8H636.46C642.11 921.8 644.98 916.87 644.98 907.15V700.88H635.63V903.31Z" fill="white"/>
<path d="M677.25 700.57H669.57C664.29 700.57 657.99 703.06 657.99 714.91V907.15C657.99 916.87 660.85 921.8 666.5 921.8H680.32C685.97 921.8 688.83 916.87 688.83 907.15V714.91C688.83 703.06 682.53 700.57 677.25 700.57ZM667.33 714.91C667.337 711.584 668.034 709.917 669.42 709.91H677.4C678.787 709.917 679.484 711.584 679.49 714.91V903.31C679.49 909.38 678.17 912.46 675.56 912.46H671.26C668.65 912.46 667.33 909.38 667.33 903.31V714.91Z" fill="white"/>
<path d="M6.4 1019.91V1004.12H0V1001.7H15.53V1004.12H9.13V1019.91H6.4Z" fill="white"/>
<path d="M23.0498 1019.91V1001.7H25.7798V1019.91H23.0498Z" fill="white"/>
<path d="M34.71 1019.91V1001.7H38.32L44.05 1013.35L49.75 1001.7H53.42V1019.91H50.79V1005.03L44.02 1018.61L37.23 1005.03V1019.91H34.71Z" fill="white"/>
<path d="M62.3096 1019.91V1001.7H75.7296V1004.09H65.0396V1009.56H72.0096V1011.87H65.0396V1017.52H75.8396V1019.91H62.3096Z" fill="white"/>
<path d="M83.8496 1019.91V1001.7H86.5796V1017.49H97.0396V1019.91H83.8496Z" fill="white"/>
<path d="M105.02 1019.91V1001.7H118.45V1004.09H107.75V1009.56H114.73V1011.87H107.75V1017.52H118.55V1019.91H105.02Z" fill="white"/>
<path d="M132.7 1020.17C131.247 1020.17 129.844 1019.89 128.49 1019.33C127.137 1018.76 125.94 1017.95 124.9 1016.89L126.56 1014.97C127.554 1015.94 128.564 1016.66 129.59 1017.13C130.624 1017.6 131.714 1017.83 132.86 1017.83C133.727 1017.83 134.49 1017.7 135.15 1017.44C135.81 1017.18 136.324 1016.82 136.69 1016.36C137.07 1015.9 137.26 1015.37 137.26 1014.78C137.26 1013.97 136.974 1013.34 136.4 1012.9C135.827 1012.46 134.88 1012.14 133.56 1011.93L130.54 1011.41C128.86 1011.13 127.61 1010.6 126.79 1009.82C125.964 1009.04 125.55 1008 125.55 1006.7C125.55 1005.66 125.827 1004.74 126.38 1003.94C126.934 1003.14 127.717 1002.52 128.73 1002.09C129.75 1001.66 130.927 1001.44 132.26 1001.44C133.58 1001.44 134.877 1001.66 136.15 1002.09C137.424 1002.52 138.574 1003.13 139.6 1003.91L138.09 1006.02C136.13 1004.53 134.144 1003.78 132.13 1003.78C131.33 1003.78 130.634 1003.89 130.04 1004.12C129.44 1004.35 128.98 1004.66 128.66 1005.07C128.34 1005.48 128.18 1005.96 128.18 1006.52C128.18 1007.23 128.43 1007.78 128.93 1008.18C129.437 1008.58 130.26 1008.87 131.4 1009.06L134.37 1009.53C136.29 1009.84 137.704 1010.41 138.61 1011.22C139.51 1012.03 139.96 1013.15 139.96 1014.58C139.96 1015.69 139.664 1016.67 139.07 1017.52C138.47 1018.37 137.617 1019.02 136.51 1019.48C135.41 1019.94 134.14 1020.17 132.7 1020.17Z" fill="white"/>
<path d="M154.11 1020.17C152.656 1020.17 151.253 1019.89 149.9 1019.33C148.546 1018.76 147.35 1017.95 146.31 1016.89L147.97 1014.97C148.956 1015.94 149.966 1016.66 151 1017.13C152.033 1017.6 153.123 1017.83 154.27 1017.83C155.136 1017.83 155.9 1017.7 156.56 1017.44C157.22 1017.18 157.733 1016.82 158.1 1016.36C158.473 1015.9 158.663 1015.37 158.67 1014.78C158.67 1013.97 158.383 1013.34 157.81 1012.9C157.236 1012.46 156.29 1012.14 154.97 1011.93L151.95 1011.41C150.27 1011.13 149.016 1010.6 148.19 1009.82C147.37 1009.04 146.96 1008 146.96 1006.7C146.96 1005.66 147.236 1004.74 147.79 1003.94C148.343 1003.14 149.126 1002.52 150.14 1002.09C151.153 1001.66 152.33 1001.44 153.67 1001.44C154.99 1001.44 156.286 1001.66 157.56 1002.09C158.833 1002.52 159.983 1003.13 161.01 1003.91L159.5 1006.02C157.54 1004.53 155.553 1003.78 153.54 1003.78C152.74 1003.78 152.043 1003.89 151.45 1004.12C150.85 1004.35 150.39 1004.66 150.07 1005.07C149.743 1005.48 149.58 1005.96 149.58 1006.52C149.586 1007.23 149.84 1007.78 150.34 1008.18C150.84 1008.58 151.663 1008.87 152.81 1009.06L155.78 1009.53C157.7 1009.84 159.113 1010.41 160.02 1011.22C160.92 1012.03 161.37 1013.15 161.37 1014.58C161.37 1015.69 161.07 1016.67 160.47 1017.52C159.876 1018.37 159.026 1019.02 157.92 1019.48C156.82 1019.94 155.55 1020.17 154.11 1020.17Z" fill="white"/>
<path d="M179.76 1019.91V1001.7H193.18V1004.09H182.49V1009.69H189.54V1012H182.49V1019.91H179.76Z" fill="white"/>
<path d="M201.09 1019.91V1001.7H214.52V1004.09H203.82V1009.56H210.79V1011.87H203.82V1017.52H214.62V1019.91H201.09Z" fill="white"/>
<path d="M222.63 1019.91V1001.7H226.25L231.97 1013.35L237.67 1001.7H241.34V1019.91H238.71V1005.03L231.94 1018.61L225.15 1005.03V1019.91H222.63Z" fill="white"/>
<path d="M250.23 1019.91V1001.7H252.96V1019.91H250.23Z" fill="white"/>
<path d="M261.88 1019.91V1001.7H264.54L274.68 1015.23V1001.7H277.26V1019.91H274.84L264.46 1005.99V1019.91H261.88Z" fill="white"/>
<path d="M286.21 1019.91V1001.7H288.94V1019.91H286.21Z" fill="white"/>
<path d="M297.87 1019.91V1001.7H300.52L310.67 1015.23V1001.7H313.24V1019.91H310.82L300.45 1005.99V1019.91H297.87Z" fill="white"/>
<path d="M322.19 1019.91V1001.7H324.92V1019.91H322.19Z" fill="white"/>
<path d="M338.82 1019.91V1004.12H332.42V1001.7H347.95V1004.12H341.55V1019.91H338.82Z" fill="white"/>
<path d="M361.17 1019.91V1012.68L353.83 1001.7H357L362.6 1010.28L368.22 1001.7H371.23L363.9 1012.76V1019.91H361.17Z" fill="white"/>
<path d="M373.94 1023.63L375.55 1017.57H378.31L375.94 1023.63H373.94Z" fill="white"/>
<path d="M403.6 1020.17C402.14 1020.17 400.733 1019.89 399.38 1019.33C398.033 1018.76 396.837 1017.95 395.79 1016.89L397.46 1014.97C398.447 1015.94 399.457 1016.66 400.49 1017.13C401.523 1017.6 402.61 1017.83 403.75 1017.83C404.617 1017.83 405.38 1017.7 406.04 1017.44C406.7 1017.18 407.217 1016.82 407.59 1016.36C407.963 1015.9 408.15 1015.37 408.15 1014.78C408.15 1013.97 407.863 1013.34 407.29 1012.9C406.717 1012.46 405.773 1012.14 404.46 1011.93L401.44 1011.41C399.753 1011.13 398.5 1010.6 397.68 1009.82C396.853 1009.04 396.443 1008 396.45 1006.7C396.443 1005.66 396.72 1004.74 397.28 1003.94C397.833 1003.14 398.617 1002.52 399.63 1002.09C400.643 1001.66 401.82 1001.44 403.16 1001.44C404.473 1001.44 405.767 1001.66 407.04 1002.09C408.32 1002.52 409.47 1003.13 410.49 1003.91L408.98 1006.02C407.02 1004.53 405.037 1003.78 403.03 1003.78C402.23 1003.78 401.53 1003.89 400.93 1004.12C400.33 1004.35 399.87 1004.66 399.55 1005.07C399.23 1005.48 399.07 1005.96 399.07 1006.52C399.07 1007.23 399.32 1007.78 399.82 1008.18C400.327 1008.58 401.153 1008.87 402.3 1009.06L405.27 1009.53C407.19 1009.84 408.6 1010.41 409.5 1011.22C410.407 1012.03 410.86 1013.15 410.86 1014.58C410.86 1015.69 410.56 1016.67 409.96 1017.52C409.36 1018.37 408.51 1019.02 407.41 1019.48C406.31 1019.94 405.04 1020.17 403.6 1020.17Z" fill="white"/>
<path d="M427.35 1020.2C425.996 1020.2 424.743 1019.96 423.59 1019.48C422.436 1019.01 421.423 1018.34 420.55 1017.48C419.67 1016.62 418.993 1015.62 418.52 1014.49C418.04 1013.36 417.8 1012.13 417.8 1010.8C417.8 1009.47 418.04 1008.23 418.52 1007.1C418.993 1005.97 419.67 1004.97 420.55 1004.12C421.423 1003.27 422.44 1002.61 423.6 1002.13C424.76 1001.65 426.01 1001.41 427.35 1001.41C428.303 1001.41 429.236 1001.54 430.15 1001.79C431.056 1002.04 431.896 1002.4 432.67 1002.87C433.443 1003.34 434.123 1003.91 434.71 1004.59L432.86 1006.43C432.186 1005.62 431.366 1005 430.4 1004.58C429.426 1004.15 428.41 1003.94 427.35 1003.94C426.376 1003.94 425.483 1004.11 424.67 1004.46C423.856 1004.81 423.14 1005.29 422.52 1005.91C421.906 1006.54 421.43 1007.27 421.09 1008.1C420.75 1008.93 420.58 1009.83 420.58 1010.8C420.58 1011.78 420.75 1012.68 421.09 1013.51C421.43 1014.34 421.906 1015.07 422.52 1015.69C423.14 1016.32 423.87 1016.81 424.71 1017.15C425.55 1017.5 426.446 1017.67 427.4 1017.67C428.46 1017.67 429.466 1017.45 430.42 1017.02C431.373 1016.59 432.18 1015.99 432.84 1015.23L434.63 1017.05C434.043 1017.69 433.363 1018.25 432.59 1018.73C431.816 1019.2 430.986 1019.57 430.1 1019.82C429.2 1020.07 428.283 1020.2 427.35 1020.2Z" fill="white"/>
<path d="M449.95 1020.2C448.343 1020.2 446.956 1019.87 445.79 1019.21C444.63 1018.55 443.74 1017.62 443.12 1016.41C442.493 1015.21 442.18 1013.78 442.18 1012.13V1001.7H444.91V1012.13C444.91 1013.26 445.116 1014.23 445.53 1015.06C445.943 1015.88 446.53 1016.52 447.29 1016.99C448.043 1017.44 448.93 1017.67 449.95 1017.67C450.963 1017.67 451.84 1017.44 452.58 1016.99C453.326 1016.52 453.91 1015.88 454.33 1015.06C454.743 1014.23 454.95 1013.26 454.95 1012.13V1001.7H457.68V1012.13C457.68 1013.78 457.363 1015.21 456.73 1016.41C456.096 1017.62 455.203 1018.55 454.05 1019.21C452.896 1019.87 451.53 1020.2 449.95 1020.2Z" fill="white"/>
<path d="M466.29 1019.91V1001.7H469.02V1017.49H479.48V1019.91H466.29Z" fill="white"/>
<path d="M487.47 1019.91V1001.7H495.87C497.07 1001.7 498.11 1001.93 498.99 1002.38C499.876 1002.83 500.573 1003.46 501.08 1004.29C501.58 1005.12 501.83 1006.07 501.83 1007.16C501.83 1008.22 501.58 1009.15 501.08 1009.96C500.573 1010.77 499.873 1011.4 498.98 1011.87C498.086 1012.34 497.05 1012.58 495.87 1012.57H490.2V1019.91H487.47ZM490.2 1010.26H495.61C496.67 1010.26 497.513 1009.98 498.14 1009.43C498.766 1008.88 499.08 1008.12 499.08 1007.16C499.08 1006.23 498.766 1005.48 498.14 1004.93C497.513 1004.37 496.67 1004.09 495.61 1004.09H490.2V1010.26Z" fill="white"/>
<path d="M514.58 1019.91V1004.12H508.18V1001.7H523.71V1004.12H517.31V1019.91H514.58Z" fill="white"/>
<path d="M531.23 1019.91V1001.7H544.66V1004.09H533.961V1009.56H540.94V1011.87H533.961V1017.52H544.76V1019.91H531.23Z" fill="white"/>
<path d="M552.77 1019.91V1001.7H559.169C560.549 1001.7 561.819 1001.93 562.979 1002.38C564.133 1002.83 565.143 1003.46 566.01 1004.29C566.876 1005.12 567.553 1006.08 568.039 1007.19C568.526 1008.3 568.77 1009.51 568.77 1010.8C568.77 1012.12 568.526 1013.33 568.039 1014.43C567.553 1015.54 566.88 1016.5 566.02 1017.32C565.16 1018.15 564.15 1018.78 562.99 1019.23C561.823 1019.68 560.549 1019.91 559.169 1019.91H552.77ZM555.5 1017.46H559.219C560.173 1017.46 561.06 1017.3 561.88 1016.97C562.693 1016.64 563.406 1016.18 564.02 1015.57C564.633 1014.96 565.11 1014.25 565.45 1013.45C565.79 1012.64 565.96 1011.77 565.96 1010.83C565.96 1009.88 565.786 1008.99 565.44 1008.18C565.093 1007.36 564.616 1006.65 564.01 1006.06C563.403 1005.46 562.693 1004.99 561.88 1004.65C561.06 1004.31 560.166 1004.14 559.2 1004.14H555.5V1017.46Z" fill="white"/>
<path d="M587.52 1019.91V1001.7H590.26V1019.91H587.52Z" fill="white"/>
<path d="M599.18 1019.91V1001.7H601.84L611.98 1015.23V1001.7H614.56V1019.91H612.14L601.76 1005.99V1019.91H599.18Z" fill="white"/>
<path d="M642.89 1020.2C641.536 1020.2 640.283 1019.96 639.13 1019.48C637.976 1019.01 636.96 1018.34 636.08 1017.48C635.207 1016.62 634.533 1015.62 634.06 1014.49C633.58 1013.36 633.34 1012.13 633.34 1010.8C633.34 1009.47 633.58 1008.23 634.06 1007.1C634.533 1005.97 635.207 1004.97 636.08 1004.12C636.96 1003.27 637.98 1002.61 639.14 1002.13C640.3 1001.65 641.55 1001.41 642.89 1001.41C643.843 1001.41 644.773 1001.54 645.68 1001.79C646.593 1002.04 647.437 1002.4 648.21 1002.87C648.977 1003.34 649.656 1003.91 650.25 1004.59L648.4 1006.43C647.727 1005.62 646.903 1005 645.93 1004.58C644.956 1004.15 643.943 1003.94 642.89 1003.94C641.916 1003.94 641.023 1004.11 640.21 1004.46C639.39 1004.81 638.673 1005.29 638.06 1005.91C637.446 1006.54 636.97 1007.27 636.63 1008.1C636.29 1008.93 636.12 1009.83 636.12 1010.8C636.12 1011.78 636.29 1012.68 636.63 1013.51C636.97 1014.34 637.446 1015.07 638.06 1015.69C638.673 1016.32 639.403 1016.81 640.25 1017.15C641.09 1017.5 641.986 1017.67 642.94 1017.67C643.993 1017.67 645 1017.45 645.96 1017.02C646.913 1016.59 647.72 1015.99 648.38 1015.23L650.17 1017.05C649.583 1017.69 648.903 1018.25 648.13 1018.73C647.356 1019.2 646.523 1019.57 645.63 1019.82C644.736 1020.07 643.823 1020.2 642.89 1020.2Z" fill="white"/>
<path d="M666.33 1020.2C665.03 1020.2 663.803 1019.96 662.65 1019.48C661.496 1019.01 660.486 1018.34 659.62 1017.48C658.746 1016.62 658.073 1015.62 657.6 1014.49C657.126 1013.36 656.89 1012.13 656.89 1010.8C656.89 1009.49 657.126 1008.26 657.6 1007.12C658.073 1005.99 658.746 1004.99 659.62 1004.13C660.486 1003.28 661.496 1002.61 662.65 1002.13C663.803 1001.65 665.03 1001.41 666.33 1001.41C667.663 1001.41 668.906 1001.65 670.06 1002.13C671.213 1002.61 672.223 1003.28 673.09 1004.13C673.956 1004.99 674.633 1005.99 675.12 1007.12C675.606 1008.26 675.85 1009.49 675.85 1010.8C675.85 1012.13 675.606 1013.36 675.12 1014.49C674.633 1015.62 673.956 1016.62 673.09 1017.48C672.223 1018.34 671.213 1019.01 670.06 1019.48C668.906 1019.96 667.663 1020.2 666.33 1020.2ZM666.38 1017.67C667.32 1017.67 668.193 1017.5 669 1017.15C669.8 1016.81 670.51 1016.33 671.13 1015.71C671.743 1015.1 672.22 1014.37 672.56 1013.52C672.9 1012.69 673.07 1011.78 673.07 1010.8C673.063 1009.83 672.89 1008.93 672.55 1008.09C672.203 1007.25 671.726 1006.52 671.12 1005.9C670.506 1005.29 669.8 1004.81 669 1004.46C668.193 1004.11 667.31 1003.94 666.35 1003.94C665.416 1003.94 664.543 1004.11 663.73 1004.46C662.91 1004.81 662.196 1005.29 661.59 1005.9C660.99 1006.52 660.52 1007.25 660.18 1008.09C659.84 1008.93 659.67 1009.83 659.67 1010.8C659.67 1011.78 659.84 1012.69 660.18 1013.52C660.52 1014.37 660.99 1015.1 661.59 1015.71C662.196 1016.33 662.913 1016.81 663.74 1017.15C664.56 1017.5 665.44 1017.67 666.38 1017.67Z" fill="white"/>
<path d="M691.38 1020.2C689.766 1020.2 688.38 1019.87 687.22 1019.21C686.06 1018.55 685.166 1017.62 684.54 1016.41C683.913 1015.21 683.6 1013.78 683.6 1012.13V1001.7H686.34V1012.13C686.34 1013.26 686.546 1014.23 686.96 1015.06C687.373 1015.88 687.96 1016.52 688.72 1016.99C689.473 1017.44 690.36 1017.67 691.38 1017.67C692.386 1017.67 693.263 1017.44 694.01 1016.99C694.756 1016.52 695.34 1015.88 695.76 1015.06C696.173 1014.23 696.38 1013.26 696.38 1012.13V1001.7H699.11V1012.13C699.11 1013.78 698.793 1015.21 698.16 1016.41C697.526 1017.62 696.633 1018.55 695.48 1019.21C694.326 1019.87 692.96 1020.2 691.38 1020.2Z" fill="white"/>
<path d="M712.69 1019.91V1004.12H706.29V1001.7H721.82V1004.12H715.42V1019.91H712.69Z" fill="white"/>
<path d="M736.76 1020.2C735.147 1020.2 733.757 1019.87 732.591 1019.21C731.431 1018.55 730.54 1017.62 729.92 1016.41C729.294 1015.21 728.98 1013.78 728.98 1012.13V1001.7H731.711V1012.13C731.711 1013.26 731.921 1014.23 732.341 1015.06C732.754 1015.88 733.337 1016.52 734.091 1016.99C734.851 1017.44 735.74 1017.67 736.76 1017.67C737.767 1017.67 738.644 1017.44 739.391 1016.99C740.131 1016.52 740.71 1015.88 741.13 1015.06C741.544 1014.23 741.75 1013.26 741.75 1012.13V1001.7H744.48V1012.13C744.48 1013.78 744.167 1015.21 743.54 1016.41C742.9 1017.62 742.007 1018.55 740.86 1019.21C739.707 1019.87 738.34 1020.2 736.76 1020.2Z" fill="white"/>
<path d="M753.09 1019.91V1001.7H761.32C762.533 1001.7 763.593 1001.93 764.5 1002.38C765.413 1002.83 766.123 1003.45 766.63 1004.26C767.143 1005.07 767.4 1006.02 767.4 1007.11C767.4 1008.29 767.06 1009.32 766.38 1010.19C765.693 1011.07 764.793 1011.69 763.68 1012.05L767.71 1019.91H764.67L760.93 1012.44H755.82V1019.91H753.09ZM755.83 1010.16H761.11C762.183 1010.16 763.04 1009.89 763.68 1009.34C764.32 1008.79 764.643 1008.05 764.65 1007.11C764.643 1006.19 764.32 1005.46 763.68 1004.91C763.04 1004.36 762.183 1004.09 761.11 1004.09H755.83V1010.16Z" fill="white"/>
<path d="M775.44 1019.91V1001.7H788.87V1004.09H778.17V1009.56H785.15V1011.87H778.17V1017.52H788.97V1019.91H775.44Z" fill="white"/>
<path d="M798.36 1020.12C797.906 1020.12 797.523 1019.96 797.21 1019.64C796.883 1019.31 796.72 1018.92 796.72 1018.46C796.72 1018.01 796.883 1017.61 797.21 1017.28C797.523 1016.95 797.906 1016.79 798.36 1016.79C798.813 1016.79 799.2 1016.95 799.52 1017.28C799.84 1017.61 800 1018.01 800 1018.46C800 1018.92 799.84 1019.31 799.52 1019.64C799.2 1019.96 798.813 1020.12 798.36 1020.12Z" fill="white"/>
</svg>
