<svg width="640" height="1360" viewBox="0 0 640 1360" fill="none" xmlns="http://www.w3.org/2000/svg">
<rect width="640" height="1360" fill="white"/>
<g clip-path="url(#clip0_31_14)">
<path d="M454.43 668.458C471.98 668.458 489.45 661.918 501.35 648.548C513.783 634.575 520 619.208 520 602.448V108.568H403.87C358.99 108.575 336.547 133.438 336.54 183.158V1176.84C336.547 1226.57 358.99 1251.43 403.87 1251.43H520V757.558C520 740.792 513.783 725.422 501.35 711.448C489.45 698.078 471.98 691.538 454.43 691.538H454.3V668.458H454.43ZM454.29 206.308C454.29 183.158 458.33 167.318 466.19 158.408C468.27 156.058 470.55 154.088 473.15 152.718H473.16V593.008C473.16 603.538 471.05 611.508 467.01 617.148C463.92 621.488 459.72 624.478 454.29 625.988V206.308ZM407.46 1175.13V1210.28C407.46 1210.28 383.38 1199.13 383.38 1176.85V732.698H407.46V1175.13ZM407.46 668.808V691.208C403.46 690.788 399.957 689.772 396.95 688.158C393.44 686.268 393.44 673.738 396.95 671.848C399.957 670.235 403.46 669.218 407.46 668.798V668.808ZM407.46 184.888V627.318H383.38V183.168C383.38 160.888 407.46 149.738 407.46 149.738V184.888ZM467.01 742.848C471.05 748.498 473.16 756.468 473.16 766.988V1207.29H473.15C470.55 1205.92 468.27 1203.94 466.19 1201.6C458.33 1192.69 454.29 1176.85 454.29 1153.7V734.018C459.72 735.518 463.92 738.518 467.01 742.848Z" fill="#0C0D0D"/>
<path d="M236.13 108.568H120V602.448C120 619.208 126.217 634.575 138.65 648.548C150.55 661.918 168.02 668.458 185.57 668.458H185.7V691.538H185.57C168.02 691.538 150.55 698.078 138.65 711.448C126.217 725.422 120 740.792 120 757.558V1251.43H236.13C281.01 1251.43 303.453 1226.57 303.46 1176.84V183.158C303.453 133.438 281.01 108.575 236.13 108.568ZM185.7 1153.7C185.7 1176.85 181.67 1192.69 173.8 1201.59C171.73 1203.94 169.45 1205.91 166.84 1207.28V766.988C166.84 756.468 168.95 748.488 172.98 742.848C176.07 738.518 180.27 735.518 185.7 734.008V1153.7ZM232.54 668.808V668.798C236.54 669.218 240.043 670.238 243.05 671.858C246.56 673.738 246.56 686.268 243.05 688.158C240.043 689.772 236.54 690.788 232.54 691.208V668.808ZM185.7 625.998C180.27 624.488 176.07 621.488 172.98 617.158C168.95 611.518 166.84 603.538 166.84 593.018V152.718V152.728C169.45 154.098 171.73 156.068 173.8 158.418C181.67 167.318 185.7 183.158 185.7 206.308V625.998ZM256.62 1176.85C256.62 1199.14 232.54 1210.29 232.54 1210.29V1175.13V732.698H256.62V1176.85ZM256.62 627.318H232.54V184.888V149.728C232.54 149.728 256.62 160.888 256.62 183.168V627.318Z" fill="#0C0D0D"/>
</g>
<defs>
<clipPath id="clip0_31_14">
<rect width="400" height="1143" fill="white" transform="translate(120 108.5)"/>
</clipPath>
</defs>
</svg>
