<svg width="400" height="1143" viewBox="0 0 400 1143" fill="none" xmlns="http://www.w3.org/2000/svg">
<g clip-path="url(#clip0_2086_798)">
<path d="M334.43 559.958C351.98 559.958 369.45 553.418 381.35 540.048C393.783 526.075 400 510.708 400 493.948V0.0683594H283.87C238.99 0.075026 216.547 24.9384 216.54 74.6584V1068.34C216.547 1118.07 238.99 1142.93 283.87 1142.93H400V649.058C400 632.292 393.783 616.922 381.35 602.948C369.45 589.578 351.98 583.038 334.43 583.038H334.3V559.958H334.43ZM334.29 97.8084C334.29 74.6584 338.33 58.8184 346.19 49.9084C348.27 47.5584 350.55 45.5884 353.15 44.2184H353.16V484.508C353.16 495.038 351.05 503.008 347.01 508.648C343.92 512.988 339.72 515.978 334.29 517.488V97.8084ZM287.46 1066.63V1101.78C287.46 1101.78 263.38 1090.63 263.38 1068.35V624.198H287.46V1066.63ZM287.46 560.308V582.708C283.46 582.288 279.957 581.272 276.95 579.658C273.44 577.768 273.44 565.238 276.95 563.348C279.957 561.735 283.46 560.718 287.46 560.298V560.308ZM287.46 76.3884V518.818H263.38V74.6684C263.38 52.3884 287.46 41.2384 287.46 41.2384V76.3884ZM347.01 634.348C351.05 639.998 353.16 647.968 353.16 658.488V1098.79H353.15C350.55 1097.42 348.27 1095.44 346.19 1093.1C338.33 1084.19 334.29 1068.35 334.29 1045.2V625.518C339.72 627.018 343.92 630.018 347.01 634.348Z" fill="white"/>
<path d="M116.13 0.0683594H0V493.948C0 510.708 6.21667 526.075 18.65 540.048C30.55 553.418 48.02 559.958 65.57 559.958H65.7V583.038H65.57C48.02 583.038 30.55 589.578 18.65 602.948C6.21667 616.922 0 632.292 0 649.058V1142.93H116.13C161.01 1142.93 183.453 1118.07 183.46 1068.34V74.6584C183.453 24.9384 161.01 0.075026 116.13 0.0683594ZM65.7 1045.2C65.7 1068.35 61.67 1084.19 53.8 1093.09C51.73 1095.44 49.45 1097.41 46.84 1098.78V658.488C46.84 647.968 48.95 639.988 52.98 634.348C56.07 630.018 60.27 627.018 65.7 625.508V1045.2ZM112.54 560.308V560.298C116.54 560.718 120.043 561.738 123.05 563.358C126.56 565.238 126.56 577.768 123.05 579.658C120.043 581.272 116.54 582.288 112.54 582.708V560.308ZM65.7 517.498C60.27 515.988 56.07 512.988 52.98 508.658C48.95 503.018 46.84 495.038 46.84 484.518V44.2184V44.2284C49.45 45.5984 51.73 47.5684 53.8 49.9184C61.67 58.8184 65.7 74.6584 65.7 97.8084V517.498ZM136.62 1068.35C136.62 1090.64 112.54 1101.79 112.54 1101.79V1066.63V624.198H136.62V1068.35ZM136.62 518.818H112.54V76.3884V41.2284C112.54 41.2284 136.62 52.3884 136.62 74.6684V518.818Z" fill="white"/>
</g>
<defs>
<clipPath id="clip0_2086_798">
<rect width="400" height="1143" fill="white"/>
</clipPath>
</defs>
</svg>
