<svg version="1.2" xmlns="http://www.w3.org/2000/svg" viewBox="0 0.14285714286052098 400 1142.8571428571395" width="400" height="1143">
	<style>
		.s0 { fill: #1d1d1b } 
	</style>
	<g id="Calque 2">
		<g id="Calque 1 00000003096295447873391060000001678308379542931329 ">
			<g id="&lt;Group&gt;">
				<path id="&lt;Compound Path&gt;" class="s0" d="m334.43 560.03c17.55 0 35.02-6.54 46.92-19.91q18.65-20.96 18.65-46.1v-493.88h-116.13q-67.32 0.01-67.33 74.59v993.68q0.01 74.59 67.33 74.59h116.13v-493.87q0-25.15-18.65-46.11c-11.9-13.37-29.37-19.91-46.92-19.91h-0.13v-23.08zm-0.14-462.15c0-23.15 4.04-38.99 11.9-47.9 2.08-2.35 4.36-4.32 6.96-5.69h0.01v440.29c0 10.53-2.11 18.5-6.15 24.14-3.09 4.34-7.29 7.33-12.72 8.84zm-46.83 968.82v35.15c0 0-24.08-11.15-24.08-33.43v-444.15h24.08zm0-506.32v22.4q-6-0.63-10.51-3.05c-3.51-1.89-3.51-14.42 0-16.31q4.51-2.42 10.51-3.05zm0-483.92v442.43h-24.08v-444.15c0-22.28 24.08-33.43 24.08-33.43zm59.55 557.96c4.04 5.65 6.15 13.62 6.15 24.14v440.3h-0.01c-2.6-1.37-4.88-3.35-6.96-5.69-7.86-8.91-11.9-24.75-11.9-47.9v-419.68c5.43 1.5 9.63 4.5 12.72 8.83z"/>
				<path id="&lt;Compound Path&gt;" class="s0" d="m116.13 0.14h-116.13v493.88q0 25.14 18.65 46.1c11.9 13.37 29.37 19.91 46.92 19.91h0.13v23.08h-0.13c-17.55 0-35.02 6.54-46.92 19.91q-18.65 20.96-18.65 46.11v493.87h116.13q67.32 0 67.33-74.59v-993.68q-0.01-74.58-67.33-74.59zm-50.43 1045.13c0 23.15-4.03 38.99-11.9 47.89-2.07 2.35-4.35 4.32-6.96 5.69v-440.29c0-10.52 2.11-18.5 6.14-24.14 3.09-4.33 7.29-7.33 12.72-8.84zm46.84-484.89v-0.01q6 0.63 10.51 3.06c3.51 1.88 3.51 14.41 0 16.3q-4.51 2.42-10.51 3.05zm-46.84-42.81c-5.43-1.51-9.63-4.51-12.72-8.84-4.03-5.64-6.14-13.62-6.14-24.14v-440.3 0.01c2.61 1.37 4.89 3.34 6.96 5.69 7.87 8.9 11.9 24.74 11.9 47.89zm70.92 550.85c0 22.29-24.08 33.44-24.08 33.44v-35.16-442.43h24.08zm0-549.53h-24.08v-442.43-35.16c0 0 24.08 11.16 24.08 33.44z"/>
			</g>
		</g>
	</g>
</svg>