<svg version="1.2" xmlns="http://www.w3.org/2000/svg" viewBox="0 0.3689851154999815 800 1023.6310148845" width="800" height="1024">
	<style>
		.s0 { fill: #1d1d1b } 
		.s1 { fill: #0c0d0d } 
	</style>
	<g id="Calque 2">
		<g id="Calque 1 00000039816151351226213670000003096729279737526963 ">
			<g id="&lt;Group&gt;">
				<g id="&lt;Group&gt;">
					<path id="&lt;Compound Path&gt;" class="s0" d="m457.83 241.22c7.55 0 15.06-2.82 20.18-8.57q8.02-9.01 8.02-19.83v-212.45h-49.95q-28.96 0-28.96 32.08v427.46q0 32.09 28.96 32.09h49.95v-212.46q0-10.81-8.02-19.83c-5.12-5.75-12.63-8.56-20.18-8.56h-0.06v-9.93zm-0.06-198.81c0-9.96 1.74-16.77 5.12-20.6 0.9-1.01 1.88-1.86 3-2.45v189.4c0 4.53-0.91 7.96-2.64 10.39-1.33 1.86-3.14 3.15-5.48 3.8zm-20.14 416.76v15.12c0 0-10.36-4.8-10.36-14.38v-191.06h10.36zm0-217.81v9.64q-2.59-0.27-4.53-1.32c-1.5-0.81-1.5-6.2 0-7.01q1.94-1.04 4.53-1.31zm0-208.17v190.32h-10.36v-191.06c0-9.59 10.36-14.38 10.36-14.38zm25.62 240.02c1.73 2.43 2.64 5.86 2.64 10.38v189.41c-1.12-0.59-2.1-1.44-3-2.45-3.38-3.83-5.12-10.65-5.12-20.6v-180.54c2.34 0.65 4.15 1.94 5.48 3.8z"/>
					<path id="&lt;Compound Path&gt;" class="s0" d="m363.92 0.37h-49.95v212.45q0 10.82 8.02 19.83c5.12 5.75 12.63 8.57 20.18 8.57h0.06v9.93h-0.06c-7.55 0-15.06 2.81-20.18 8.56q-8.02 9.02-8.02 19.83v212.46h49.95q28.96 0 28.96-32.09v-427.46q0-32.08-28.96-32.08zm-21.69 449.58c0 9.96-1.74 16.78-5.12 20.61-0.89 1.01-1.87 1.86-2.99 2.45h-0.01v-189.41c0-4.52 0.91-7.95 2.65-10.38 1.33-1.87 3.13-3.15 5.47-3.8zm20.15-208.59q2.58 0.27 4.52 1.31c1.51 0.81 1.51 6.2 0 7.01q-1.94 1.04-4.52 1.31zm-20.15-18.41c-2.34-0.65-4.14-1.94-5.47-3.8-1.74-2.43-2.65-5.86-2.65-10.39v-189.4h0.01c1.12 0.59 2.1 1.44 2.99 2.45 3.38 3.83 5.12 10.64 5.12 20.6zm30.51 236.96c0 9.59-10.36 14.39-10.36 14.39v-15.13-190.32h10.36zm0-236.39h-10.36v-190.33-15.12c0 0 10.36 4.8 10.36 14.38z"/>
				</g>
				<g id="&lt;Group&gt;">
					<path id="&lt;Path&gt;" class="s1" d="m130.43 700.94h-7.68c-5.28 0-11.58 2.49-11.58 14.34v86.6c0 4.82 2.51 9.07 7.47 12.62l0.26 0.19h10.3c1.49 0 3.47 0.53 3.47 5.16v83.83c0 6.07-1.32 9.15-3.93 9.15h-4.3c-2.61 0-3.93-3.08-3.93-9.15v-54.57h-9.34v58.41c0 9.72 2.86 14.65 8.51 14.65h13.82c5.65 0 8.51-4.93 8.51-14.65v-89.36c0-4.81-2.35-9.05-6.99-12.61l-0.26-0.2h-10.78c-1.49 0-3.47-0.54-3.47-5.16v-84.91q0.01-4.99 2.09-5h7.98q2.08 0.01 2.09 5v58.41h9.34v-58.41c0-11.85-6.3-14.34-11.58-14.34z"/>
					<path id="&lt;Path&gt;" class="s1" d="m177.14 807.65h-12.77v-106.71h-9.35v221.23h9.35v-105.18h12.77v105.18h9.34v-221.23h-9.34z"/>
					<path id="&lt;Path&gt;" class="s1" d="m199.49 922.17h26.85v-9.34h-17.5v-95.84h17.5v-9.34h-17.5v-97.37h17.5v-9.34h-26.85z"/>
					<path id="&lt;Path&gt;" class="s1" d="m273.42 700.94l-12.35 89.9-12.5-89.9h-9.38l17.21 111.46v109.77h9.34l-0.01-109.7 17.07-111.53z"/>
					<path id="&lt;Path&gt;" class="s1" d="m295.65 922.17h26.85v-9.34h-17.51v-95.84h17.51v-9.34h-17.51v-97.37h17.51v-9.34h-26.85z"/>
					<path id="&lt;Compound Path&gt;" class="s1" d="m406.9 700.94h-7.68c-5.28 0-11.58 2.49-11.58 14.34v192.24c0 9.72 2.86 14.65 8.51 14.65h13.82c5.65 0 8.51-4.93 8.51-14.65v-192.24c0-11.85-6.3-14.34-11.58-14.34zm-9.92 14.34q0.01-4.99 2.09-5h7.98q2.08 0.01 2.09 5v188.4c0 6.07-1.32 9.15-3.93 9.15h-4.3c-2.61 0-3.93-3.08-3.93-9.15z"/>
					<path id="&lt;Path&gt;" class="s1" d="m440.84 700.94h-9.34v221.23h26.84v-9.34h-17.5z"/>
					<path id="&lt;Compound Path&gt;" class="s1" d="m491.71 700.94l-20.45 221.23h10.28l6.15-72.93h14.6l5.22 72.93h9.36l-17.82-221.23zm9.82 138.95h-12.91l6.98-82.75z"/>
					<path id="&lt;Compound Path&gt;" class="s1" d="m549.68 700.94h-19.88v221.23h22.95c5.64 0 8.51-4.93 8.51-14.65v-192.24c0-11.85-6.3-14.34-11.58-14.34zm2.23 14.34v188.4c0 6.07-1.32 9.15-3.92 9.15h-8.85v-202.55h10.69q2.08 0.01 2.08 5z"/>
					<path id="&lt;Path&gt;" class="s1" d="m574.27 922.17h26.85v-9.34h-17.51v-95.84h17.51v-9.34h-17.51v-97.37h17.51v-9.34h-26.85z"/>
					<path id="&lt;Path&gt;" class="s1" d="m635.63 903.68c0 6.07-1.32 9.15-3.93 9.15h-4.3c-2.6 0-3.92-3.08-3.92-9.15v-54.57h-9.35v58.41c0 9.72 2.87 14.65 8.51 14.65h13.82c5.65 0 8.52-4.93 8.52-14.65v-206.27h-9.35z"/>
					<path id="&lt;Compound Path&gt;" class="s1" d="m677.25 700.94h-7.68c-5.28 0-11.58 2.49-11.58 14.34v192.24c0 9.72 2.86 14.65 8.51 14.65h13.82c5.65 0 8.51-4.93 8.51-14.65v-192.24c0-11.85-6.3-14.34-11.58-14.34zm-9.92 14.34q0.01-4.99 2.09-5h7.98q2.08 0.01 2.09 5v188.4c0 6.07-1.32 9.15-3.93 9.15h-4.3c-2.61 0-3.93-3.08-3.93-9.15z"/>
				</g>
				<g id="&lt;Group&gt;">
					<g id="&lt;Group&gt;">
						<path id="&lt;Compound Path&gt;" class="s1" d="m6.4 1020.28v-15.79h-6.4v-2.42h15.53v2.42h-6.4v15.79z"/>
						<path id="&lt;Compound Path&gt;" class="s1" d="m23.05 1020.28v-18.21h2.73v18.21z"/>
						<path id="&lt;Compound Path&gt;" class="s1" d="m34.71 1020.28v-18.21h3.61l5.73 11.65 5.7-11.65h3.67v18.21h-2.63v-14.88l-6.77 13.58-6.79-13.58v14.88z"/>
						<path id="&lt;Compound Path&gt;" class="s1" d="m62.31 1020.28v-18.21h13.42v2.39h-10.69v5.47h6.97v2.31h-6.97v5.65h10.8v2.39z"/>
						<path id="&lt;Compound Path&gt;" class="s1" d="m83.85 1020.28v-18.21h2.73v15.79h10.46v2.42z"/>
						<path id="&lt;Compound Path&gt;" class="s1" d="m105.02 1020.28v-18.21h13.43v2.39h-10.7v5.47h6.98v2.31h-6.98v5.65h10.8v2.39z"/>
						<path id="&lt;Compound Path&gt;" class="s1" d="m132.7 1020.54q-2.18 0-4.21-0.84-2.03-0.85-3.59-2.44l1.66-1.92q1.49 1.46 3.03 2.16 1.55 0.7 3.27 0.7 1.3 0 2.29-0.39 0.99-0.39 1.54-1.08 0.57-0.69 0.57-1.58 0-1.22-0.86-1.88-0.86-0.66-2.84-0.97l-3.02-0.52q-2.52-0.42-3.75-1.59-1.24-1.17-1.24-3.12 0-1.56 0.83-2.76 0.83-1.2 2.35-1.85 1.53-0.65 3.53-0.65 1.98 0 3.89 0.65 1.91 0.65 3.45 1.82l-1.51 2.11q-2.94-2.24-5.96-2.24-1.2 0-2.09 0.34-0.9 0.34-1.38 0.95-0.48 0.61-0.48 1.45 0 1.06 0.75 1.66 0.76 0.6 2.47 0.88l2.97 0.47q2.88 0.47 4.24 1.69 1.35 1.22 1.35 3.36 0 1.66-0.89 2.94-0.9 1.27-2.56 1.96-1.65 0.69-3.81 0.69z"/>
						<path id="&lt;Compound Path&gt;" class="s1" d="m154.11 1020.54q-2.18 0-4.21-0.84-2.03-0.85-3.59-2.44l1.66-1.92q1.48 1.46 3.03 2.16 1.55 0.7 3.27 0.7 1.3 0 2.29-0.39 0.99-0.39 1.54-1.08 0.56-0.69 0.57-1.58 0-1.22-0.86-1.88-0.86-0.66-2.84-0.97l-3.02-0.52q-2.52-0.42-3.76-1.59-1.23-1.17-1.23-3.12 0-1.56 0.83-2.76 0.83-1.2 2.35-1.85 1.52-0.65 3.53-0.65 1.98 0 3.89 0.65 1.91 0.65 3.45 1.82l-1.51 2.11q-2.94-2.24-5.96-2.24-1.2 0-2.09 0.34-0.9 0.34-1.38 0.95-0.49 0.61-0.49 1.45 0.01 1.06 0.76 1.66 0.75 0.6 2.47 0.88l2.97 0.47q2.88 0.47 4.24 1.69 1.35 1.22 1.35 3.36 0 1.66-0.9 2.94-0.89 1.27-2.55 1.96-1.65 0.69-3.81 0.69z"/>
						<path id="&lt;Compound Path&gt;" class="s1" d="m179.76 1020.28v-18.21h13.42v2.39h-10.69v5.6h7.05v2.31h-7.05v7.91z"/>
						<path id="&lt;Compound Path&gt;" class="s1" d="m201.09 1020.28v-18.21h13.43v2.39h-10.7v5.47h6.97v2.31h-6.97v5.65h10.8v2.39z"/>
						<path id="&lt;Compound Path&gt;" class="s1" d="m222.63 1020.28v-18.21h3.62l5.72 11.65 5.7-11.65h3.67v18.21h-2.63v-14.88l-6.77 13.58-6.79-13.58v14.88z"/>
						<path id="&lt;Compound Path&gt;" class="s1" d="m250.23 1020.28v-18.21h2.73v18.21z"/>
						<path id="&lt;Compound Path&gt;" class="s1" d="m261.88 1020.28v-18.21h2.66l10.14 13.53v-13.53h2.58v18.21h-2.42l-10.38-13.92v13.92z"/>
						<path id="&lt;Compound Path&gt;" class="s1" d="m286.21 1020.28v-18.21h2.73v18.21z"/>
						<path id="&lt;Compound Path&gt;" class="s1" d="m297.87 1020.28v-18.21h2.65l10.15 13.53v-13.53h2.57v18.21h-2.42l-10.37-13.92v13.92z"/>
						<path id="&lt;Compound Path&gt;" class="s1" d="m322.19 1020.28v-18.21h2.73v18.21z"/>
						<path id="&lt;Compound Path&gt;" class="s1" d="m338.82 1020.28v-15.79h-6.4v-2.42h15.53v2.42h-6.4v15.79z"/>
						<path id="&lt;Compound Path&gt;" class="s1" d="m361.17 1020.28v-7.23l-7.34-10.98h3.17l5.6 8.58 5.62-8.58h3.01l-7.33 11.06v7.15z"/>
						<path id="&lt;Compound Path&gt;" class="s1" d="m373.94 1024l1.61-6.06h2.76l-2.37 6.06z"/>
						<path id="&lt;Compound Path&gt;" class="s1" d="m403.6 1020.54q-2.19 0-4.22-0.84-2.02-0.85-3.59-2.44l1.67-1.92q1.48 1.46 3.03 2.16 1.55 0.7 3.26 0.7 1.3 0 2.29-0.39 0.99-0.39 1.55-1.08 0.56-0.69 0.56-1.58 0-1.22-0.86-1.88-0.86-0.66-2.83-0.97l-3.02-0.52q-2.53-0.42-3.76-1.59-1.24-1.17-1.23-3.12-0.01-1.56 0.83-2.76 0.83-1.2 2.35-1.85 1.52-0.65 3.53-0.65 1.97 0 3.88 0.65 1.92 0.65 3.45 1.82l-1.51 2.11q-2.94-2.24-5.95-2.24-1.2 0-2.1 0.34-0.9 0.34-1.38 0.95-0.48 0.61-0.48 1.45 0 1.06 0.75 1.66 0.76 0.6 2.48 0.88l2.97 0.47q2.88 0.47 4.23 1.69 1.36 1.22 1.36 3.36 0 1.66-0.9 2.94-0.9 1.27-2.55 1.96-1.65 0.69-3.81 0.69z"/>
						<path id="&lt;Compound Path&gt;" class="s1" d="m427.35 1020.57q-2.03 0-3.76-0.72-1.73-0.71-3.04-2-1.32-1.29-2.03-2.99-0.72-1.7-0.72-3.69 0-2 0.72-3.7 0.71-1.7 2.03-2.98 1.31-1.27 3.05-1.99 1.74-0.72 3.75-0.72 1.43 0 2.8 0.38 1.36 0.38 2.52 1.08 1.16 0.7 2.04 1.72l-1.85 1.84q-1.01-1.22-2.46-1.85-1.46-0.64-3.05-0.64-1.46 0-2.68 0.52-1.22 0.52-2.15 1.45-0.92 0.94-1.43 2.19-0.51 1.25-0.51 2.7 0 1.47 0.51 2.71 0.51 1.25 1.43 2.18 0.93 0.95 2.19 1.46 1.26 0.52 2.69 0.52 1.59 0 3.02-0.65 1.43-0.65 2.42-1.79l1.79 1.82q-0.88 0.96-2.04 1.68-1.16 0.71-2.49 1.09-1.35 0.38-2.75 0.38z"/>
						<path id="&lt;Compound Path&gt;" class="s1" d="m449.95 1020.57q-2.41 0-4.16-0.99-1.74-0.99-2.67-2.8-0.94-1.8-0.94-4.28v-10.43h2.73v10.43q0 1.69 0.62 2.93 0.62 1.23 1.76 1.93 1.13 0.68 2.66 0.68 1.52 0 2.63-0.68 1.12-0.7 1.75-1.93 0.62-1.24 0.62-2.93v-10.43h2.73v10.43q0 2.48-0.95 4.28-0.95 1.81-2.68 2.8-1.73 0.99-4.1 0.99z"/>
						<path id="&lt;Compound Path&gt;" class="s1" d="m466.29 1020.28v-18.21h2.73v15.79h10.46v2.42z"/>
						<path id="&lt;Compound Path&gt;" class="s1" d="m487.47 1020.28v-18.21h8.4q1.8 0 3.12 0.68 1.33 0.67 2.09 1.91 0.75 1.24 0.75 2.87 0 1.59-0.75 2.8-0.76 1.21-2.1 1.91-1.34 0.71-3.11 0.7h-5.67v7.34zm2.73-9.65h5.41q1.59 0 2.53-0.83 0.94-0.83 0.94-2.27 0-1.4-0.94-2.23-0.94-0.84-2.53-0.84h-5.41z"/>
						<path id="&lt;Compound Path&gt;" class="s1" d="m514.58 1020.28v-15.79h-6.4v-2.42h15.53v2.42h-6.4v15.79z"/>
						<path id="&lt;Compound Path&gt;" class="s1" d="m531.23 1020.28v-18.21h13.43v2.39h-10.7v5.47h6.98v2.31h-6.98v5.65h10.8v2.39z"/>
						<path id="&lt;Compound Path&gt;" class="s1" d="m552.77 1020.28v-18.21h6.4q2.07 0 3.81 0.68 1.73 0.67 3.03 1.91 1.3 1.24 2.03 2.9 0.73 1.67 0.73 3.61 0 1.98-0.73 3.63-0.73 1.66-2.02 2.89-1.29 1.24-3.03 1.91-1.75 0.68-3.82 0.68zm2.73-2.45h3.72q1.43 0 2.66-0.49 1.22-0.49 2.14-1.4 0.92-0.92 1.43-2.12 0.51-1.21 0.51-2.62 0-1.43-0.52-2.65-0.52-1.23-1.43-2.12-0.91-0.9-2.13-1.41-1.23-0.51-2.68-0.51h-3.7z"/>
						<path id="&lt;Compound Path&gt;" class="s1" d="m587.52 1020.28v-18.21h2.74v18.21z"/>
						<path id="&lt;Compound Path&gt;" class="s1" d="m599.18 1020.28v-18.21h2.66l10.14 13.53v-13.53h2.58v18.21h-2.42l-10.38-13.92v13.92z"/>
						<path id="&lt;Compound Path&gt;" class="s1" d="m642.89 1020.57q-2.03 0-3.76-0.72-1.73-0.71-3.05-2-1.31-1.29-2.02-2.99-0.72-1.7-0.72-3.69 0-2 0.72-3.7 0.71-1.7 2.02-2.98 1.32-1.27 3.06-1.99 1.74-0.72 3.75-0.72 1.43 0 2.79 0.38 1.37 0.38 2.53 1.08 1.15 0.7 2.04 1.72l-1.85 1.84q-1.01-1.22-2.47-1.85-1.46-0.64-3.04-0.64-1.46 0-2.68 0.52-1.23 0.52-2.15 1.45-0.92 0.94-1.43 2.19-0.51 1.25-0.51 2.7 0 1.47 0.51 2.71 0.51 1.25 1.43 2.18 0.92 0.95 2.19 1.46 1.26 0.52 2.69 0.52 1.58 0 3.02-0.65 1.43-0.65 2.42-1.79l1.79 1.82q-0.88 0.96-2.04 1.68-1.16 0.71-2.5 1.09-1.34 0.38-2.74 0.38z"/>
						<path id="&lt;Compound Path&gt;" class="s1" d="m666.33 1020.57q-1.95 0-3.68-0.72-1.73-0.71-3.03-2-1.31-1.29-2.02-2.99-0.71-1.7-0.71-3.69 0-1.97 0.71-3.68 0.71-1.7 2.02-2.99 1.3-1.28 3.03-2 1.73-0.72 3.68-0.72 2 0 3.73 0.72 1.73 0.72 3.03 2 1.3 1.29 2.03 2.99 0.73 1.71 0.73 3.68 0 1.99-0.73 3.69-0.73 1.7-2.03 2.99-1.3 1.29-3.03 2-1.73 0.72-3.73 0.72zm0.05-2.53q1.41 0 2.62-0.52 1.2-0.51 2.13-1.44 0.92-0.92 1.43-2.19 0.51-1.25 0.51-2.72-0.01-1.45-0.52-2.71-0.52-1.26-1.43-2.19-0.92-0.92-2.12-1.44-1.21-0.52-2.65-0.52-1.4 0-2.62 0.52-1.23 0.52-2.14 1.44-0.9 0.93-1.41 2.19-0.51 1.26-0.51 2.71 0 1.47 0.51 2.72 0.51 1.27 1.41 2.19 0.91 0.93 2.15 1.44 1.23 0.52 2.64 0.52z"/>
						<path id="&lt;Compound Path&gt;" class="s1" d="m691.38 1020.57q-2.42 0-4.16-0.99-1.74-0.99-2.68-2.8-0.94-1.8-0.94-4.28v-10.43h2.74v10.43q0 1.69 0.62 2.93 0.62 1.23 1.76 1.93 1.13 0.68 2.66 0.68 1.51 0 2.63-0.68 1.12-0.7 1.75-1.93 0.62-1.24 0.62-2.93v-10.43h2.73v10.43q0 2.48-0.95 4.28-0.95 1.81-2.68 2.8-1.73 0.99-4.1 0.99z"/>
						<path id="&lt;Compound Path&gt;" class="s1" d="m712.69 1020.28v-15.79h-6.4v-2.42h15.53v2.42h-6.4v15.79z"/>
						<path id="&lt;Compound Path&gt;" class="s1" d="m736.76 1020.57q-2.42 0-4.17-0.99-1.74-0.99-2.67-2.8-0.94-1.8-0.94-4.28v-10.43h2.73v10.43q0 1.69 0.63 2.93 0.62 1.23 1.75 1.93 1.14 0.68 2.67 0.68 1.51 0 2.63-0.68 1.11-0.7 1.74-1.93 0.62-1.24 0.62-2.93v-10.43h2.73v10.43q0 2.48-0.94 4.28-0.96 1.81-2.68 2.8-1.73 0.99-4.1 0.99z"/>
						<path id="&lt;Compound Path&gt;" class="s1" d="m753.09 1020.28v-18.21h8.23q1.82 0 3.18 0.68 1.37 0.67 2.13 1.88 0.77 1.21 0.77 2.85 0 1.77-1.02 3.08-1.03 1.32-2.7 1.86l4.03 7.86h-3.04l-3.74-7.47h-5.11v7.47zm2.74-9.75h5.28q1.61 0 2.57-0.82 0.96-0.82 0.97-2.23-0.01-1.38-0.97-2.2-0.96-0.82-2.57-0.82h-5.28z"/>
						<path id="&lt;Compound Path&gt;" class="s1" d="m775.44 1020.28v-18.21h13.43v2.39h-10.7v5.47h6.98v2.31h-6.98v5.65h10.8v2.39z"/>
						<path id="&lt;Compound Path&gt;" class="s1" d="m798.36 1020.49q-0.68 0-1.15-0.48-0.49-0.49-0.49-1.18 0-0.68 0.49-1.18 0.47-0.49 1.15-0.49 0.68 0 1.16 0.49 0.48 0.5 0.48 1.18 0 0.69-0.48 1.18-0.48 0.48-1.16 0.48z"/>
					</g>
				</g>
			</g>
		</g>
	</g>
</svg>