<svg version="1.2" xmlns="http://www.w3.org/2000/svg" viewBox="0 0 1044.4444444444098 400" width="1045" height="400">
	<style>
		.s0 { fill: #0c0d0d } 
	</style>
	<g id="Calque 3">
		<g id="Calque 1 00000047054164849599084240000002800319238179698366 ">
			<g id="&lt;Group&gt;">
				<path id="&lt;Path&gt;" class="s0" d="m34.82 0h-13.88c-9.55 0-20.94 4.5-20.94 25.94v156.57c0 8.72 4.55 16.39 13.52 22.82l0.46 0.34h18.62c2.69 0 6.27 0.96 6.27 9.32v151.58c0 10.97-2.39 16.54-7.1 16.54h-7.78c-4.71 0-7.1-5.57-7.1-16.54v-98.67h-16.89v105.61c0 17.58 5.18 26.49 15.39 26.49h24.99c10.21 0 15.38-8.91 15.38-26.49v-161.57c0-8.69-4.25-16.36-12.63-22.79l-0.48-0.37h-19.49c-2.69 0-6.27-0.97-6.27-9.32v-153.52c0-6 1.27-9.05 3.77-9.05h14.44c2.5 0 3.77 3.05 3.77 9.05v105.61h16.89v-105.61c0-21.44-11.38-25.94-20.94-25.94z"/>
				<path id="&lt;Path&gt;" class="s0" d="m119.28 192.94h-23.09v-192.94h-16.9v400h16.9v-190.17h23.09v190.17h16.89v-400h-16.89z"/>
				<path id="&lt;Path&gt;" class="s0" d="m159.7 400h48.54v-16.89h-31.65v-173.28h31.65v-16.89h-31.65v-176.05h31.65v-16.89h-48.54z"/>
				<path id="&lt;Path&gt;" class="s0" d="m293.35 0l-22.33 162.54-22.59-162.54h-16.96l31.12 201.53v198.47h16.89l-0.02-198.34 30.86-201.66z"/>
				<path id="&lt;Path&gt;" class="s0" d="m333.55 400h48.55v-16.89h-31.65v-173.28h31.65v-16.89h-31.65v-176.05h31.65v-16.89h-48.55z"/>
				<path id="&lt;Compound Path&gt;" class="s0" d="m534.7 0h-13.89c-9.55 0-20.94 4.5-20.94 25.94v347.57c0 17.58 5.18 26.49 15.39 26.49h24.99c10.21 0 15.39-8.91 15.39-26.49v-347.57c0-21.44-11.39-25.94-20.94-25.94zm-17.93 25.94c0-6 1.27-9.05 3.77-9.05h14.44c2.5 0 3.76 3.05 3.76 9.05v340.63c0 10.97-2.39 16.54-7.1 16.54h-7.77c-4.71 0-7.1-5.57-7.1-16.54z"/>
				<path id="&lt;Path&gt;" class="s0" d="m596.06 0h-16.89v400h48.54v-16.89h-31.65z"/>
				<path id="&lt;Compound Path&gt;" class="s0" d="m688.05 0l-36.98 400h18.59l11.1-131.87h26.41l9.44 131.87h16.92l-32.22-400zm17.76 251.24h-23.35l12.63-149.63z"/>
				<path id="&lt;Compound Path&gt;" class="s0" d="m792.84 0h-35.93v400h41.48c10.22 0 15.39-8.91 15.39-26.49v-347.57c0-21.44-11.38-25.94-20.94-25.94zm4.05 25.94v340.63c0 10.97-2.39 16.54-7.1 16.54h-15.99v-366.22h19.32c2.5 0 3.77 3.05 3.77 9.05z"/>
				<path id="&lt;Path&gt;" class="s0" d="m837.31 400h48.55v-16.89h-31.65v-173.28h31.65v-16.89h-31.65v-176.05h31.65v-16.89h-48.55z"/>
				<path id="&lt;Path&gt;" class="s0" d="m948.26 366.57c0 10.97-2.39 16.54-7.1 16.54h-7.78c-4.71 0-7.1-5.57-7.1-16.54v-98.67h-16.89v105.61c0 17.58 5.17 26.49 15.39 26.49h24.98c10.21 0 15.39-8.91 15.39-26.49v-372.95h-16.89z"/>
				<path id="&lt;Compound Path&gt;" class="s0" d="m1023.5 0h-13.88c-9.55 0-20.94 4.5-20.94 25.94v347.57c0 17.58 5.18 26.49 15.39 26.49h24.99c10.21 0 15.38-8.91 15.38-26.49v-347.57c0-21.44-11.38-25.94-20.94-25.94zm-17.93 25.94c0-6 1.27-9.05 3.78-9.05h14.43c2.5 0 3.77 3.05 3.77 9.05v340.63c0 10.97-2.39 16.54-7.1 16.54h-7.77c-4.72 0-7.11-5.57-7.11-16.54z"/>
			</g>
		</g>
	</g>
</svg>